HIERARCHY
ROOT ui
{
	 OFFSET 0 0 0
	 CHANNELS 3 XPosition YPosition Z Position
	 EndSite
	 {
	 OFFSET 0 -1 0
	 }
}
ROOT li
{
	 OFFSET 0 0 0
	 CHANNELS 3 XPosition YPosition Z Position
	 EndSite
	 {
	 OFFSET 0 -1 0
	 }
}
ROOT ul
{
	 OFFSET 0 0 0
	 CHANNELS 3 XPosition YPosition Z Position
	 EndSite
	 {
	 OFFSET 0 -1 0
	 }
}
ROOT ll
{
	 OFFSET 0 0 0
	 CHANNELS 3 XPosition YPosition Z Position
	 EndSite
	 {
	 OFFSET 0 -1 0
	 }
}
ROOT tt
{
	 OFFSET 0 0 0
	 CHANNELS 3 XPosition YPosition Z Position
	 EndSite
	 {
	 OFFSET 0 -1 0
	 }
}
ROOT tb
{
	 OFFSET 0 0 0
	 CHANNELS 3 XPosition YPosition Z Position
	 EndSite
	 {
	 OFFSET 0 -1 0
	 }
}
ROOT td
{
	 OFFSET 0 0 0
	 CHANNELS 3 XPosition YPosition Z Position
	 EndSite
	 {
	 OFFSET 0 -1 0
	 }
}
ROOT v
{
	 OFFSET 0 0 0
	 CHANNELS 3 XPosition YPosition Z Position
	 EndSite
	 {
	 OFFSET 0 -1 0
	 }
}
ROOT bn
{
	 OFFSET 0 0 0
	 CHANNELS 3 XPosition YPosition Z Position
	 EndSite
	 {
	 OFFSET 0 -1 0
	 }
}
MOTION
Frames: 16
Frame Time: 0.002
9.195410013198852E-4	-2.75624006986618E-4	0		0.45072705078125	-2.499430908203125	0		-1.0180881958007812	-0.042599250793457034	0		-0.4882130432128906	-2.69432958984375	0		1.271486328125	-0.7079513549804688	0		2.969023193359375	-0.2306537628173828	0		4.384796875	-0.048968494415283205	0		5.57138623046875	0.17715223693847656	0		-0.13034895324707033	5.94036865234375	0		
-0.0018851890563964843	-0.003249068021774292	0		0.45117391967773435	-2.499427734375	0		-1.0219086303710938	-0.0466325569152832	0		-0.5606605224609374	-2.688995849609375	0		1.2746201171875	-0.7169402465820313	0		2.98955908203125	-0.2168419189453125	0		4.3802080078125	-0.04056440353393555	0		5.5709716796875	0.19556983947753906	0		-0.14574835205078124	5.9306171875	0		
-0.0015978809595108031	-0.003285162925720215	0		0.44962579345703124	-2.50138818359375	0		-1.033424072265625	-0.03652334213256836	0		-0.48928329467773435	-2.696436279296875	0		1.304151611328125	-0.70743017578125	0		2.96063916015625	-0.22807752990722657	0		4.37638427734375	-0.0461672477722168	0		5.56708984375	0.18806396484375	0		-0.13173428344726562	5.941298828125	0		
-0.001274070978164673	-0.0033259379863739016	0		0.4501551208496094	-2.501391845703125	0		-1.101161376953125	-0.03935110855102539	0		-0.5596105346679687	-2.689163818359375	0		1.26946337890625	-0.7106951904296875	0		2.952040283203125	-0.22470346069335936	0		4.374673828125	-0.0478093376159668	0		5.57803369140625	0.16927494812011717	0		-0.26529498291015624	5.92178857421875	0		
0.0021448419094085695	-4.2873099446296694E-4	0		0.452759033203125	-2.499438720703125	0		-1.0168491821289063	-0.043081287384033204	0		-0.48611807250976563	-2.694640625	0		1.2609041748046874	-0.7094660034179687	0		2.98103564453125	-0.24505499267578126	0		4.37503955078125	-0.04749756240844726	0		5.58666552734375	0.18453024291992187	0		-0.28235592651367186	5.9250439453125	0		
0.014583466529846191	0.0012951819896697997	0		0.4594740905761719	-2.49356591796875	0		-1.0083118286132813	-0.03636404037475586	0		-0.55026123046875	-2.6815009765625	0		1.28441650390625	-0.7068497314453125	0		2.9760078125	-0.21575740051269532	0		4.37955908203125	-0.041273609161376956	0		5.57643408203125	0.20513223266601563	0		-0.1169263916015625	5.9498466796875	0		
0.002992433071136475	-5.289930105209351E-4	0		0.4809399108886719	-2.502975830078125	0		-1.0278043212890624	-0.033118186950683595	0		-0.4828077392578125	-2.69285595703125	0		1.2649573974609376	-0.7044248657226563	0		2.958152099609375	-0.2322349395751953	0		4.37793212890625	-0.04494536590576172	0		5.57337353515625	0.17957655334472655	0		-0.11790796661376954	5.95180419921875	0		
0.003478048086166382	-5.822640061378479E-4	0		0.4546769104003906	-2.49948681640625	0		-1.0214110717773437	-0.03836154556274414	0		-0.4929465637207031	-2.683741455078125	0		1.3064517822265624	-0.7071510009765625	0		2.96274853515625	-0.22713934326171875	0		4.38253271484375	-0.03874196243286133	0		5.56903369140625	0.19003903198242186	0		-0.14628289794921875	5.93027099609375	0		
9.468989968299866E-4	-0.003579663038253784	0		0.48028829956054686	-2.5049736328125	0		-1.030863525390625	-0.037304630279541014	0		-0.48139382934570313	-2.693035888671875	0		1.266072998046875	-0.7043427734375	0		2.975194091796875	-0.23219784545898436	0		4.37280029296875	-0.052282791137695316	0		5.57369287109375	0.19832049560546874	0		-0.11779090881347656	5.95167919921875	0		
0.004562519073486328	-6.895880103111267E-4	0		0.43016653442382813	-2.497044677734375	0		-1.0802548828125	-0.03450154495239258	0		-0.5453880615234376	-2.678916259765625	0		1.28151318359375	-0.7135835571289062	0		2.969125732421875	-0.2129117889404297	0		4.38773388671875	-0.03228791046142578	0		5.5890126953125	0.1863881378173828	0		-0.25006158447265625	5.931078125	0		
-0.0046767001152038575	0.008443267822265624	0		0.45892538452148435	-2.4975859375	0		-1.005691650390625	-0.03699938583374023	0		-0.5544061889648437	-2.667821533203125	0		1.2555299072265624	-0.6930496215820312	0		2.9644736328125	-0.22666404724121095	0		4.38421728515625	-0.03796263885498047	0		5.57481689453125	0.19899685668945313	0		-0.11747308349609376	5.9515576171875	0		
0.005774886131286621	-7.879999876022339E-4	0		0.45767315673828124	-2.499566162109375	0		-1.0209554443359374	-0.03081854248046875	0		-0.5088954467773438	-2.68373486328125	0		1.3089464111328124	-0.7069920043945312	0		2.994325439453125	-0.21505477905273437	0		4.37384228515625	-0.03751874542236328	0		5.57542431640625	0.1993157501220703	0		-0.13144515991210937	5.9407626953125	0		
-0.0034135029315948487	0.008351651191711426	0		0.4854140319824219	-2.50307763671875	0		-1.0203093872070312	-0.030925867080688476	0		-0.5548358154296875	-2.669946533203125	0		1.2686785888671874	-0.7041985473632812	0		2.959915283203125	-0.2182652587890625	0		4.381376953125	-0.043416007995605466	0		5.58087060546875	0.18953128051757812	0		-0.13215464782714845	5.9417294921875	0		
0.004028231143951416	-0.003814337968826294	0		0.433326416015625	-2.497115966796875	0		-1.0078294677734374	-0.04124409866333008	0		-0.516057373046875	-2.672716064453125	0		1.2693839111328125	-0.704162841796875	0		2.96468310546875	-0.213203857421875	0		4.3910048828125	-0.04536120223999023	0		5.58152294921875	0.18982188415527343	0		-0.13086070251464843	5.9406640625	0		
0.007761513233184815	-9.056400060653687E-4	0		0.4601012878417969	-2.499603759765625	0		-1.0770452880859376	-0.03505513000488281	0		-0.5362467041015625	-2.67339599609375	0		1.263955810546875	-0.71201806640625	0		2.986820556640625	-0.24347477722167968	0		4.372798828125	-0.03880934524536133	0		5.5725224609375	0.2082723846435547	0		-0.2676318359375	5.93512939453125	0		
-0.03946860122680664	0.003936302900314331	0		0.46702420043945314	-2.49372509765625	0		-0.9983311767578125	-0.03456731414794922	0		-0.4702701416015625	-2.665644775390625	0		1.3317423095703125	-0.7092122192382813	0		2.995268798828125	-0.20249330139160157	0		4.3916328125	-0.03095353889465332	0		5.58801611328125	0.1982462158203125	0		-0.24831733703613282	5.93073583984375	0		
